<?xml version="1.0" encoding="UTF-8" standalone="no"?>
<!-- Created with Inkscape (http://www.inkscape.org/) -->

<svg
   width="210mm"
   height="297mm"
   viewBox="0 0 210 297"
   version="1.1"
   id="svg5"
   xml:space="preserve"
   inkscape:version="1.2.2 (b0a8486541, 2022-12-01)"
   sodipodi:docname="iconos.svg"
   xmlns:inkscape="http://www.inkscape.org/namespaces/inkscape"
   xmlns:sodipodi="http://sodipodi.sourceforge.net/DTD/sodipodi-0.dtd"
   xmlns="http://www.w3.org/2000/svg"
   xmlns:svg="http://www.w3.org/2000/svg"><sodipodi:namedview
     id="namedview7"
     pagecolor="#ffffff"
     bordercolor="#666666"
     borderopacity="1.0"
     inkscape:showpageshadow="2"
     inkscape:pageopacity="0.0"
     inkscape:pagecheckerboard="0"
     inkscape:deskcolor="#d1d1d1"
     inkscape:document-units="mm"
     showgrid="false"
     inkscape:zoom="0.27370551"
     inkscape:cx="-646.68045"
     inkscape:cy="865.89416"
     inkscape:window-width="1866"
     inkscape:window-height="1043"
     inkscape:window-x="54"
     inkscape:window-y="0"
     inkscape:window-maximized="1"
     inkscape:current-layer="layer1" /><defs
     id="defs2" /><g
     inkscape:label="Capa 1"
     inkscape:groupmode="layer"
     id="layer1"><circle
       style="fill:#3498db;fill-opacity:1;stroke-width:5.19999;stroke-linecap:round;stroke-linejoin:round"
       id="path368"
       cx="75.994141"
       cy="79.708328"
       r="68.791672"
       inkscape:export-filename="app/static/icon-512x512.png"
       inkscape:export-xdpi="96"
       inkscape:export-ydpi="96" /><path
       style="fill:#ffffff;stroke-width:0.999996"
       d="m 75.048783,127.07206 c -0.670248,-0.51049 -1.17487,-0.56083 -5.62193,-0.56083 -3.953113,0 -5.008435,-0.0833 -5.529233,-0.43653 -0.719527,-0.48797 -0.878241,-1.83001 -0.273883,-2.31567 0.213174,-0.1713 2.5736,-0.36078 5.573088,-0.44738 6.007244,-0.17342 5.930989,-0.13815 5.930989,-2.74271 v -1.62889 l -11.367044,-0.005 c -12.219945,-0.005 -12.228636,-0.006 -13.366359,-1.48812 -0.486116,-0.63353 -0.627414,-1.29319 -0.708909,-3.30957 -0.131495,-3.25346 0.06833,-4.18806 1.124228,-5.25788 l 0.865032,-0.87646 h 24.932554 24.932564 l 0.98466,0.95341 0.98465,0.95342 v 3.26672 c 0,3.65991 -0.31379,4.62906 -1.72815,5.33725 -0.71681,0.35889 -2.616429,0.42536 -12.158549,0.42536 H 78.313475 v 1.77922 c 0,2.60083 0.03256,2.61584 5.736859,2.65102 2.597779,0.0161 4.962087,0.1025 5.254047,0.19225 1.1084,0.34063 0.97333,2.26184 -0.18912,2.68979 -0.38681,0.14238 -2.791982,0.25889 -5.344852,0.25889 -4.203033,0 -4.711129,0.053 -5.377915,0.56084 -0.404988,0.30845 -1.157316,0.56081 -1.671844,0.56081 -0.514538,0 -1.266879,-0.25236 -1.671867,-0.56081 z m 17.101338,-12.21392 c 0.94188,-0.63877 0.87996,-2.14694 -0.11941,-2.90808 -1.00209,-0.76323 -1.71215,-0.73376 -2.58056,0.10708 -1.85606,1.79715 0.5301,4.27258 2.69997,2.80098 z m 6.48537,-0.0275 c 0.78125,-0.68457 0.71419,-2.4635 -0.11408,-3.02519 -0.87794,-0.59541 -1.84768,-0.54798 -2.54201,0.12431 -0.70819,0.6857 -0.75938,2.14661 -0.1,2.85216 0.59721,0.63896 2.05302,0.6647 2.75597,0.0487 z m -43.390889,11.26798 c -1.328023,-0.90066 -0.818105,-2.67189 0.769217,-2.67189 0.806927,0 1.737632,0.8308 1.737632,1.55109 0,1.02916 -1.592263,1.74107 -2.506849,1.1208 z m 4.34502,5.6e-4 c -0.883423,-0.59913 -1.005964,-1.43015 -0.333021,-2.25851 0.660847,-0.81347 1.489214,-0.74164 2.33213,0.20226 0.655584,0.73413 0.638925,1.10358 -0.0837,1.85459 -0.693581,0.72084 -1.088582,0.76243 -1.915435,0.20166 z m 32.624939,0.051 c -0.8147,-0.39707 -1.12389,-1.6673 -0.56467,-2.31973 0.4196,-0.48957 2.05304,-0.53286 2.53399,-0.0672 0.57604,0.55775 0.41297,1.83063 -0.29612,2.31154 -0.76931,0.52175 -0.75837,0.52126 -1.6732,0.0753 z m 4.11893,-0.0753 c -0.70911,-0.48092 -0.87218,-1.75378 -0.29613,-2.31154 0.19114,-0.18508 0.75153,-0.3365 1.2453,-0.3365 1.10807,0 1.59284,0.43894 1.59284,1.44227 0,0.73708 -0.87794,1.64229 -1.59284,1.64229 -0.16803,0 -0.59517,-0.19644 -0.94917,-0.43652 z M 40.906665,116.82493 C 27.468763,114.79809 16.492353,104.07177 14.300432,90.824912 c -0.550643,-3.327814 -0.222231,-9.208338 0.708061,-12.678357 1.848914,-6.896554 7.084166,-14.116779 12.969752,-17.887272 4.1577,-2.663561 10.129871,-4.797343 14.52817,-5.190742 l 2.26891,-0.202937 0.646756,-1.962896 c 1.27745,-3.877005 4.109373,-8.597108 6.96307,-11.605664 1.619115,-1.706966 5.432271,-4.531526 7.683146,-5.691206 4.771459,-2.458302 9.204119,-3.59811 14.769904,-3.79791 10.42532,-0.374227 19.8644,3.65175 26.145099,11.151484 2.09898,2.506366 4.71839,7.179307 5.60432,9.997868 0.28142,0.895346 0.54844,1.678012 0.59337,1.739238 0.0449,0.06126 1.35491,0.272504 2.91106,0.469495 13.7411,1.739429 24.81134,11.93219 27.44764,25.272017 0.55701,2.818455 0.55441,8.375157 -0.006,11.231822 -2.54788,13.005028 -12.98194,22.912348 -26.47412,25.137638 -1.50142,0.24763 -3.16304,0.45023 -3.69246,0.45023 h -0.96258 v -3.88956 -3.88956 l 2.0658,-0.1971 c 8.13976,-0.77661 15.60254,-5.96866 19.20319,-13.360118 1.51052,-3.10085 1.95436,-5.01283 2.10971,-9.088576 0.11596,-3.042177 0.0396,-4.049494 -0.46181,-6.087584 -2.36704,-9.622358 -10.60889,-16.692448 -20.86678,-17.900106 -5.18231,-0.610103 -11.661569,0.98717 -15.589189,3.843069 l -0.94123,0.684388 v -0.817237 c 0,-3.98053 2.07371,-7.377697 5.71973,-9.370129 0.83624,-0.456969 1.52042,-0.862153 1.52042,-0.900402 0,-0.03826 -0.24342,-0.754612 -0.54093,-1.591911 -3.24336,-9.127778 -11.91017,-15.109853 -21.891068,-15.109853 -8.767498,0 -16.857215,4.02023 -21.325073,10.597614 -2.327176,3.425973 -3.44973,7.219221 -3.447598,11.649861 0.0011,2.594492 0.597857,6.459755 1.278447,8.282804 0.704221,1.886322 0.651366,1.99663 -0.735165,1.534087 -3.982372,-1.328489 -6.444564,-3.829758 -7.479557,-7.598248 -0.312395,-1.137486 -0.377437,-1.191749 -1.428241,-1.191749 -1.565848,0 -5.367975,0.991992 -7.493867,1.95519 -6.45283,2.923643 -11.461505,8.63596 -13.311543,15.181615 -0.718964,2.543768 -0.719744,9.488341 -0.0011,12.007667 2.688929,9.429728 11.032533,16.314468 20.965637,17.299858 l 1.833195,0.18184 v 3.88707 3.88707 l -1.086026,-0.0272 c -0.597318,-0.0149 -2.215206,-0.19747 -3.595316,-0.40563 z M 51.45002,105.66955 c -1.325088,-0.71255 -1.646197,-1.55499 -1.763933,-4.62784 -0.08897,-2.321068 -0.01147,-3.111758 0.394141,-3.980958 0.960298,-2.06199 -0.502763,-1.95573 26.930345,-1.95573 h 24.529307 l 0.98466,0.9534 0.98465,0.95341 v 3.561258 3.56126 l -0.98465,0.9534 -0.98466,0.95342 -24.717877,-0.009 c -19.263708,-0.008 -24.862203,-0.0876 -25.371983,-0.36168 z m 16.669321,-3.32985 c 0.38974,-0.37736 0.465147,-2.695308 0.105481,-3.243878 -0.180131,-0.27479 -1.841152,-0.33853 -7.308117,-0.28042 l -7.074994,0.0752 -0.08828,1.494928 c -0.05091,0.86118 0.0563,1.66361 0.252672,1.8928 0.457969,0.53431 13.565969,0.59129 14.113264,0.0613 z M 51.678419,93.063792 c -0.393442,-0.19275 -1.010607,-0.7747 -1.371488,-1.29324 -0.57605,-0.82766 -0.654105,-1.282522 -0.639338,-3.725744 0.01869,-3.09878 0.408152,-4.376344 1.555919,-5.104524 0.677403,-0.429762 2.82924,-0.46886 25.500314,-0.463296 18.438685,0.0042 24.899454,0.09008 25.304784,0.335205 1.20732,0.730044 1.48112,1.695806 1.47017,5.185538 -0.0103,3.006651 -0.0712,3.393161 -0.65161,4.075131 -0.35266,0.41438 -1.00807,0.88758 -1.45647,1.05154 -1.26178,0.46141 -48.765042,0.40349 -49.712281,-0.0606 z m 16.732003,-4.921786 c 0.05091,-0.861167 -0.05629,-1.663598 -0.252672,-1.892798 -0.457969,-0.534293 -13.565946,-0.591291 -14.113264,-0.06136 -0.191126,0.185068 -0.347524,0.868777 -0.347524,1.519344 0,2.220233 -0.492159,2.088518 7.490254,2.004685 l 7.134854,-0.07493 z"
       id="path314" /><circle
       style="fill:#3498db;fill-opacity:1;stroke-width:5.19998;stroke-linecap:round;stroke-linejoin:round"
       id="circle2276"
       cx="34.609398"
       cy="184.88866"
       r="25.4"
       inkscape:export-filename="app/static/icon-bt-192.png"
       inkscape:export-xdpi="96"
       inkscape:export-ydpi="96" /><path
       style="fill:#ffffff;stroke-width:0.999997"
       d="m 34.260347,202.37682 c -0.247472,-0.1885 -0.433792,-0.20707 -2.075792,-0.20707 -1.4596,0 -1.849264,-0.0307 -2.041552,-0.16119 -0.26568,-0.18017 -0.324272,-0.67569 -0.10112,-0.85502 0.07872,-0.0632 0.950256,-0.13328 2.05776,-0.16519 2.218048,-0.064 2.189904,-0.051 2.189904,-1.01268 v -0.60144 l -4.197072,-0.002 c -4.511984,-0.002 -4.515184,-0.002 -4.935264,-0.54946 -0.179488,-0.23392 -0.231664,-0.47749 -0.26176,-1.222 -0.04848,-1.20128 0.02528,-1.54637 0.415104,-1.94138 l 0.319392,-0.32361 h 9.205875 9.205816 l 0.36357,0.35203 0.363547,0.35203 v 1.20618 c 0,1.35134 -0.11584,1.70918 -0.638077,1.97067 -0.264667,0.13248 -0.966054,0.15712 -4.489283,0.15712 h -4.175609 v 0.65694 c 0,0.96031 0.0128,0.96586 2.118208,0.97884 0.959177,0.006 1.832151,0.0379 1.939941,0.071 0.409267,0.12576 0.359387,0.83513 -0.0698,0.99315 -0.14288,0.0526 -1.030874,0.0955 -1.973478,0.0955 -1.551871,0 -1.739471,0.0195 -1.985671,0.20709 -0.149597,0.11392 -0.427307,0.20707 -0.617284,0.20707 -0.18999,0 -0.46778,-0.0931 -0.617315,-0.20707 z m 6.314322,-4.50976 c 0.347757,-0.23586 0.324887,-0.79271 -0.0442,-1.07375 -0.369997,-0.2818 -0.632177,-0.27092 -0.952824,0.0395 -0.685317,0.66357 0.195717,1.57757 0.996904,1.03421 z m 2.394575,-0.01 c 0.28846,-0.25277 0.2637,-0.9096 -0.0421,-1.11699 -0.324157,-0.21986 -0.682214,-0.20234 -0.938584,0.0459 -0.261487,0.25318 -0.280387,0.79259 -0.037,1.0531 0.22051,0.23594 0.758027,0.24544 1.017574,0.0179 z m -16.021201,4.16048 c -0.490352,-0.33255 -0.30208,-0.98655 0.284016,-0.98655 0.297936,0 0.641584,0.30676 0.641584,0.57271 0,0.38 -0.587904,0.64286 -0.9256,0.41384 z m 1.60432,2.1e-4 c -0.326192,-0.22122 -0.37144,-0.52807 -0.12304,-0.83392 0.244,-0.30036 0.549856,-0.27383 0.861088,0.0747 0.242064,0.27105 0.235904,0.40747 -0.03088,0.68476 -0.256096,0.26616 -0.401936,0.28152 -0.707232,0.0744 z m 12.046096,0.0189 c -0.30082,-0.14656 -0.414977,-0.61562 -0.2085,-0.85652 0.15488,-0.18076 0.758047,-0.19675 0.935634,-0.0248 0.21268,0.20594 0.15248,0.67592 -0.109277,0.85349 -0.28407,0.19264 -0.28002,0.19247 -0.617807,0.0278 z m 1.520821,-0.0278 c -0.26182,-0.17757 -0.32203,-0.64756 -0.10928,-0.85349 0.0706,-0.0683 0.27749,-0.12416 0.459807,-0.12416 0.409117,0 0.588107,0.16206 0.588107,0.53253 0,0.27214 -0.324157,0.60638 -0.588107,0.60638 -0.0621,0 -0.219757,-0.0725 -0.350457,-0.16118 z m -20.465253,-3.41536 c -4.96168,-0.74837 -9.014507,-4.70887 -9.823832,-9.60002 -0.203313,-1.22872 -0.08205,-3.4 0.261439,-4.68123 0.682675,-2.54642 2.615689,-5.21235 4.788825,-6.60453 1.535152,-0.98347 3.740256,-1.77133 5.364256,-1.91659 l 0.837744,-0.0749 0.2388,-0.72475 c 0.47168,-1.43152 1.517312,-3.17432 2.570992,-4.28517 0.597824,-0.63027 2.00576,-1.67319 2.836848,-2.10138 1.76176,-0.90768 3.398432,-1.32853 5.453504,-1.4023 3.849331,-0.13824 7.33451,1.34833 9.653518,4.11747 0.775004,0.92542 1.742168,2.65082 2.069288,3.69152 0.10384,0.33059 0.202487,0.61957 0.219077,0.64218 0.0166,0.0227 0.500277,0.10064 1.074844,0.17336 5.073613,0.64224 9.161079,4.40572 10.134463,9.3312 0.20568,1.04067 0.20472,3.09236 -0.002,4.14713 -0.940744,4.80186 -4.793323,8.45994 -9.775023,9.28159 -0.554367,0.0915 -1.167884,0.16624 -1.363354,0.16624 h -0.355417 v -1.43615 -1.43614 l 0.762764,-0.0728 c 3.005425,-0.28675 5.7609,-2.20383 7.090381,-4.93298 0.557717,-1.14493 0.721597,-1.85088 0.778957,-3.35577 0.0429,-1.12327 0.0144,-1.4952 -0.17052,-2.24773 -0.873974,-3.55287 -3.917109,-6.16336 -7.704618,-6.60927 -1.913458,-0.22526 -4.305773,0.3645 -5.755977,1.41898 l -0.347517,0.2527 v -0.30176 c 0,-1.46972 0.765657,-2.72406 2.111878,-3.45972 0.308757,-0.16874 0.561387,-0.31834 0.561387,-0.33247 0,-0.0144 -0.0899,-0.27862 -0.19973,-0.58777 -1.197541,-3.37026 -4.397573,-5.57903 -8.082812,-5.57903 -3.237237,0 -6.224197,1.48439 -7.873877,3.91296 -0.859264,1.26498 -1.273744,2.66557 -1.27296,4.30149 3.84e-4,0.95797 0.220752,2.38514 0.472048,3.05827 0.260016,0.69648 0.240512,0.73722 -0.27144,0.56643 -1.470416,-0.49052 -2.379536,-1.41406 -2.761696,-2.8055 -0.11536,-0.42 -0.13936,-0.44003 -0.527344,-0.44003 -0.57816,0 -1.982016,0.36627 -2.76696,0.7219 -2.382592,1.07951 -4.231936,3.18867 -4.91504,5.60552 -0.265456,0.93925 -0.265744,3.50339 -4e-4,4.4336 0.992832,3.48175 4.073552,6.02381 7.741152,6.38765 l 0.67688,0.0672 v 1.43523 1.43522 l -0.400992,-0.01 c -0.22056,-0.005 -0.817936,-0.073 -1.327504,-0.14976 z m 3.892944,-4.11892 c -0.489264,-0.26308 -0.60784,-0.57414 -0.651312,-1.70873 -0.0328,-0.85701 -0.0048,-1.14896 0.1456,-1.46991 0.354576,-0.76134 -0.185632,-0.72211 9.94352,-0.72211 h 9.056919 l 0.36357,0.35203 0.363547,0.35202 v 1.31493 1.31493 l -0.363547,0.35203 -0.36357,0.35203 -9.126549,-0.003 c -7.112754,-0.003 -9.17989,-0.0323 -9.368114,-0.1336 z m 6.154816,-1.22948 c 0.14384,-0.13936 0.171744,-0.99519 0.03888,-1.19773 -0.06656,-0.10144 -0.679808,-0.12496 -2.698384,-0.10352 l -2.612304,0.0278 -0.03264,0.55197 c -0.01888,0.31796 0.0208,0.61425 0.09328,0.69888 0.169104,0.19728 5.008976,0.21832 5.211056,0.0227 z m -6.070496,-3.42495 c -0.14528,-0.0712 -0.373136,-0.28605 -0.506384,-0.4775 -0.212704,-0.3056 -0.24152,-0.47355 -0.236064,-1.37567 0.0064,-1.14416 0.15072,-1.61587 0.57448,-1.88475 0.250128,-0.15872 1.044656,-0.1731 9.415509,-0.17105 6.808081,0.001 9.193586,0.0333 9.343256,0.12368 0.445767,0.26956 0.546857,0.62616 0.542827,1.91467 -0.003,1.11014 -0.0262,1.25285 -0.24059,1.50465 -0.130237,0.15296 -0.372227,0.32773 -0.537777,0.38828 -0.465887,0.17035 -18.005497,0.14896 -18.355257,-0.0224 z m 6.177968,-1.81728 c 0.01872,-0.31797 -0.0208,-0.61424 -0.09328,-0.69888 -0.169088,-0.19726 -5.00896,-0.21832 -5.21104,-0.0227 -0.07056,0.0683 -0.12832,0.32079 -0.12832,0.56099 0,0.81978 -0.181728,0.77116 2.765632,0.7402 l 2.6344,-0.0277 z"
       id="path2278" /><circle
       style="fill:#3498db;fill-opacity:1;stroke-width:5.19999;stroke-linecap:round;stroke-linejoin:round"
       id="circle2296"
       cx="29.041779"
       cy="246.96107"
       r="11.90625"
       inkscape:export-filename="app/static/favicon.png"
       inkscape:export-xdpi="96"
       inkscape:export-ydpi="96" /><path
       style="fill:#ffffff;stroke-width:0.999997"
       d="m 28.878169,255.1592 c -0.116002,-0.0884 -0.20334,-0.0971 -0.973028,-0.0971 -0.684187,0 -0.866842,-0.0144 -0.956977,-0.0755 -0.124538,-0.0845 -0.152003,-0.31674 -0.0474,-0.4008 0.0369,-0.0296 0.445432,-0.0625 0.964575,-0.0774 1.03971,-0.03 1.026517,-0.0239 1.026517,-0.47469 v -0.28193 l -1.967377,-7.5e-4 c -2.114993,-7.5e-4 -2.116492,-7.5e-4 -2.313405,-0.25756 -0.08414,-0.10965 -0.108593,-0.22382 -0.1227,-0.57281 -0.02272,-0.5631 0.01185,-0.72486 0.19458,-0.91002 l 0.149715,-0.15169 h 4.315252 4.315253 l 0.170422,0.16501 0.170416,0.16502 v 0.56539 c 0,0.63344 -0.0543,0.80118 -0.299101,0.92375 -0.124065,0.0621 -0.452842,0.0737 -2.104365,0.0737 h -1.957327 v 0.30795 c 0,0.45014 0.006,0.45274 0.992918,0.45882 0.449617,0.003 0.858825,0.0178 0.909352,0.0333 0.191842,0.059 0.168465,0.39147 -0.0327,0.46554 -0.06697,0.0247 -0.483225,0.0448 -0.925072,0.0448 -0.727448,0 -0.815386,0.009 -0.930788,0.0971 -0.07013,0.0534 -0.200302,0.0971 -0.289357,0.0971 -0.08906,0 -0.219271,-0.0436 -0.289365,-0.0971 z m 2.959852,-2.11395 c 0.163013,-0.11056 0.152295,-0.37158 -0.0207,-0.50332 -0.173437,-0.1321 -0.296332,-0.127 -0.44664,0.0185 -0.321239,0.31105 0.09175,0.73949 0.467303,0.48479 z m 1.122466,-0.004 c 0.135217,-0.11849 0.123607,-0.42638 -0.01973,-0.52359 -0.151951,-0.10306 -0.319793,-0.0949 -0.439965,0.0215 -0.122573,0.11868 -0.131431,0.37153 -0.01732,0.49364 0.103365,0.1106 0.355327,0.11505 0.476992,0.008 z m -7.509961,1.95022 c -0.229852,-0.15588 -0.141599,-0.46244 0.133133,-0.46244 0.139658,0 0.300742,0.14379 0.300742,0.26845 0,0.17813 -0.275579,0.30135 -0.433875,0.19399 z m 0.752026,1e-4 c -0.152903,-0.1037 -0.174113,-0.24753 -0.05768,-0.3909 0.114375,-0.14079 0.257745,-0.12836 0.403635,0.035 0.113467,0.12706 0.11058,0.19101 -0.01448,0.32099 -0.120045,0.12476 -0.188408,0.13196 -0.331515,0.0349 z m 5.646622,0.009 c -0.141007,-0.0687 -0.19452,-0.28857 -0.09773,-0.40149 0.0726,-0.0847 0.355335,-0.0922 0.438577,-0.0116 0.0997,0.0965 0.07148,0.31684 -0.05123,0.40008 -0.133155,0.0903 -0.131257,0.0902 -0.289597,0.0131 z m 0.71289,-0.0131 c -0.12273,-0.0832 -0.150952,-0.30354 -0.05123,-0.40007 0.03308,-0.032 0.130073,-0.0582 0.215535,-0.0582 0.191775,0 0.275678,0.076 0.275678,0.24962 0,0.12757 -0.151951,0.28424 -0.275678,0.28424 -0.0291,0 -0.103012,-0.034 -0.16428,-0.0755 z m -9.593107,-1.60095 c -2.325788,-0.3508 -4.225551,-2.20728 -4.604922,-4.50001 -0.0953,-0.57596 -0.03846,-1.59375 0.12255,-2.19433 0.320004,-1.19363 1.226104,-2.44329 2.244762,-3.09587 0.719602,-0.461 1.753245,-0.83031 2.514495,-0.8984 l 0.392692,-0.0351 0.111938,-0.33973 c 0.2211,-0.67102 0.71124,-1.48796 1.205152,-2.00867 0.28023,-0.29544 0.9402,-0.78431 1.329773,-0.98502 0.825825,-0.42548 1.593015,-0.62275 2.55633,-0.65733 1.80438,-0.0648 3.438067,0.63203 4.52511,1.93006 0.363284,0.4338 0.816645,1.24257 0.969982,1.7304 0.04868,0.15497 0.09492,0.29043 0.102698,0.30102 0.0078,0.0106 0.234502,0.0472 0.503835,0.0813 2.378265,0.30105 4.294275,2.06518 4.750552,4.374 0.09641,0.48781 0.09596,1.44954 -7.5e-4,1.94397 -0.440977,2.25087 -2.24688,3.96559 -4.582065,4.35074 -0.25986,0.0429 -0.547447,0.0779 -0.639075,0.0779 h -0.166605 v -0.67319 -0.67319 l 0.357548,-0.0341 c 1.408799,-0.13441 2.700435,-1.03304 3.323632,-2.31233 0.261435,-0.53668 0.33825,-0.8676 0.365138,-1.57302 0.0201,-0.52653 0.0067,-0.70087 -0.07993,-1.05362 -0.40968,-1.66541 -1.836157,-2.88908 -3.611557,-3.09809 -0.89694,-0.1056 -2.018348,0.17085 -2.698133,0.66514 l -0.1629,0.11846 v -0.14145 c 0,-0.68894 0.358905,-1.27691 0.989947,-1.62175 0.144735,-0.0791 0.263153,-0.14922 0.263153,-0.15584 0,-0.007 -0.04215,-0.13061 -0.09362,-0.27552 -0.561353,-1.57981 -2.061375,-2.61517 -3.788843,-2.61517 -1.517453,0 -2.91759,0.6958 -3.690878,1.8342 -0.40278,0.59296 -0.597067,1.24948 -0.5967,2.01632 1.81e-4,0.44905 0.103478,1.11803 0.221273,1.43357 0.121882,0.32647 0.11274,0.34557 -0.127237,0.26551 -0.689258,-0.22993 -1.115408,-0.66284 -1.294546,-1.31508 -0.05407,-0.19687 -0.06533,-0.20626 -0.247192,-0.20626 -0.271013,0 -0.92907,0.17169 -1.297012,0.33839 -1.11684,0.50602 -1.983721,1.49469 -2.303925,2.62759 -0.124433,0.44027 -0.124568,1.64221 -1.88e-4,2.07825 0.46539,1.63206 1.909478,2.82366 3.628665,2.99421 l 0.317288,0.0315 v 0.67276 0.67276 l -0.187965,-0.005 c -0.103388,-0.002 -0.383408,-0.0342 -0.622268,-0.0702 z m 1.824817,-1.93074 c -0.229342,-0.12332 -0.284925,-0.26913 -0.305302,-0.80097 -0.01538,-0.40172 -0.0023,-0.53858 0.06825,-0.68902 0.166207,-0.35688 -0.08701,-0.33849 4.661025,-0.33849 h 4.245457 l 0.170422,0.16502 0.170416,0.165 v 0.61638 0.61637 l -0.170416,0.16501 -0.170422,0.16502 -4.278098,-0.001 c -3.334102,-0.001 -4.303072,-0.0152 -4.391302,-0.0626 z m 2.88507,-0.57632 c 0.06743,-0.0653 0.08051,-0.4665 0.01823,-0.56144 -0.0312,-0.0476 -0.31866,-0.0586 -1.264868,-0.0485 l -1.224517,0.013 -0.0153,0.25873 c -0.0088,0.14905 0.0098,0.28793 0.04373,0.3276 0.07927,0.0925 2.347958,0.10234 2.442683,0.0106 z m -2.845545,-1.60545 c -0.0681,-0.0334 -0.174908,-0.13408 -0.237367,-0.22383 -0.09971,-0.14325 -0.113213,-0.22197 -0.110655,-0.64484 0.003,-0.53632 0.07065,-0.75744 0.269287,-0.88348 0.117248,-0.0744 0.489683,-0.0811 4.413518,-0.0802 3.19131,6.9e-4 4.309522,0.0156 4.379677,0.058 0.208958,0.12636 0.256343,0.29351 0.254453,0.8975 -0.0015,0.52038 -0.0123,0.58727 -0.112778,0.70531 -0.06105,0.0717 -0.17448,0.15362 -0.252082,0.182 -0.218386,0.0798 -8.440103,0.0698 -8.604053,-0.0105 z m 2.895923,-0.85185 c 0.0088,-0.14904 -0.0097,-0.28792 -0.04372,-0.3276 -0.07926,-0.0925 -2.34795,-0.10233 -2.442675,-0.0106 -0.03308,0.032 -0.06015,0.15037 -0.06015,0.26297 0,0.38427 -0.08518,0.36148 1.29639,0.34696 l 1.234875,-0.013 z"
       id="path2298" /></g></svg>
